<svg viewBox="0 0 48 48" fill="none" xmlns="http://www.w3.org/2000/svg">
  <circle cx="24" cy="24" r="17" fill="#E8C547"/>
  <g fill="#050508">
    <path d="M19.2 8.6C15.4 9.6 12.6 12.8 12 16.6 11.4 20.2 12 23.8 11.3 27.4 10.6 31 11.4 34.8 14 37.2 16.2 39.2 18.8 38.2 20 35.4 21.2 32.4 21.5 28.8 21.8 25 22 21 21.8 16.6 20.8 12.8 19.2 8.6Z"/>
    <path d="M27.4 9.2C31.2 8.6 35 10.4 37.4 13.6 39.4 16.2 39.8 20 38.8 23.8 37.8 27.4 35.6 30.4 33.6 33 31.6 35.6 28.4 37.2 26.4 35.6 25 33.8 25.4 30.4 26 27 27 23.4 28.2 19.6 28.8 15.8 27.4 9.2Z"/>
    <path d="M29.2 7.4C31.8 6.6 34.6 7.6 36.2 9.8 37.2 11.4 37 13.2 35.4 14.2 33.6 15.2 31.4 14.2 30 12.4 29.2 10.8 29.2 7.4Z"/>
  </g>
</svg>
